<svg aria-hidden="true" style="position: absolute; width: 0; height: 0; overflow: hidden;" version="1.1" xmlns="http://www.w3.org/2000/svg" xmlns:xlink="http://www.w3.org/1999/xlink">
<defs>
<symbol id="icon-bookmark" viewBox="0 0 20 20">
<title>bookmark</title>
<path d="M14 2v17l-4-4-4 4v-17c0-0.553 0.585-1.020 1-1h6c0.689-0.020 1 0.447 1 1z"></path>
</symbol>
<symbol id="icon-bookmarks" viewBox="0 0 20 20">
<title>bookmarks</title>
<path d="M15 0h-4c-0.553 0-1 0.447-1 1l0.023 0.222c1.102 0 2 0.897 2 2v11.359l0.977-1.181 3 3.6v-16c0-0.553-0.447-1-1-1zM9.023 3h-4.023c-0.553 0-1 0.447-1 1v16l3-3.6 3 3.6v-16c0-0.553-0.424-1-0.977-1z"></path>
</symbol>
<symbol id="icon-chevron-small-right" viewBox="0 0 20 20">
<title>chevron-small-right</title>
<path d="M11 10l-3.141-3.42c-0.268-0.27-0.268-0.707 0-0.978 0.268-0.27 0.701-0.27 0.969 0l3.83 3.908c0.268 0.271 0.268 0.709 0 0.979l-3.83 3.908c-0.267 0.272-0.701 0.27-0.969 0s-0.268-0.707 0-0.978l3.141-3.419z"></path>
</symbol>
<symbol id="icon-book" viewBox="0 0 20 20">
<title>book</title>
<path d="M17 5.95v10.351c0 0.522-0.452 0.771-1 1.16-0.44 0.313-1-0.075-1-0.587 0 0 0-9.905 0-10.114 0-0.211-0.074-0.412-0.314-0.535s-7.738-4.065-7.738-4.065c-0.121-0.045-0.649-0.378-1.353-0.016-0.669 0.344-1.033 0.718-1.126 0.894l8.18 4.482c0.217 0.114 0.351 0.29 0.351 0.516v10.802c0 0.23-0.142 0.476-0.369 0.585-0.104 0.052-0.219 0.077-0.333 0.077-0.135 0-0.271-0.033-0.386-0.104-0.215-0.131-7.774-4.766-8.273-5.067-0.24-0.144-0.521-0.439-0.527-0.658l-0.112-10.286c0-0.198-0.023-0.547 0.289-1.032 0.697-1.084 3.129-2.317 4.36-1.678l8.999 4.555c0.217 0.112 0.352 0.336 0.352 0.72z"></path>
</symbol>
<symbol id="icon-bowl" viewBox="0 0 20 20">
<title>bowl</title>
<path d="M16.949 7.472c-2.176 2.902-4.095 3.002-7.046 3.152h-0.101c-3.591-0.002-6.138-1.336-6.138-1.832-0.002-0.471 2.298-1.697 5.605-1.819l0.59-1.473c-0.019 0-0.037-0.002-0.057-0.002-4.908 0-7.791 1.562-7.791 3.051v2c0 0.918 0.582 8.949 7.582 8.949s8-8.031 8-8.949v-2c0-0.391-0.201-0.787-0.584-1.158l-0.060 0.081zM17.589 2.702c-0.441-0.33-1.069-0.242-1.399 0.201l-3.608 4.809 2.336-5.838c0.206-0.512-0.044-1.094-0.557-1.301-0.508-0.205-1.096 0.043-1.3 0.559l-3.259 8.142c2.882-0.147 4.277-0.227 6.067-2.611 1.789-2.387 1.919-2.561 1.919-2.561 0.332-0.441 0.243-1.068-0.199-1.4z"></path>
</symbol>
<symbol id="icon-brush" viewBox="0 0 20 20">
<title>brush</title>
<path d="M2.763 13.563c-1.515 1.488-0.235 3.016-2.247 5.279-0.908 1.023 3.738 0.711 6.039-1.551 0.977-0.961 0.701-2.359-0.346-3.389-1.047-1.028-2.47-1.3-3.446-0.339zM19.539 0.659c-0.776-0.764-9.379 6.129-11.939 8.646-1.271 1.25-1.695 1.92-2.084 2.42-0.17 0.219 0.055 0.285 0.154 0.336 0.504 0.258 0.856 0.496 1.311 0.943s0.699 0.793 0.959 1.289c0.053 0.098 0.121 0.318 0.342 0.152 0.51-0.383 1.191-0.801 2.462-2.049 2.561-2.516 9.573-10.974 8.795-11.737z"></path>
</symbol>
<symbol id="icon-drink" viewBox="0 0 20 20">
<title>drink</title>
<path d="M17.538 2.639c0.394-0.545 0.462-1.639 0.462-1.639h-16c0 0 0.068 1.094 0.462 1.639l6.538 8.361v6h-2c-2 0-2 2-2 2h10c0 0 0-2-2-2h-2v-6l6.538-8.361zM9.4 6c0-0.885 0.716-1.6 1.6-1.6s1.6 0.715 1.6 1.6c0 0.883-0.716 1.6-1.6 1.6s-1.6-0.717-1.6-1.6z"></path>
</symbol>
<symbol id="icon-game-controller" viewBox="0 0 20 20">
<title>game-controller</title>
<path d="M19.444 9.361c-0.882-4.926-2.854-6.379-3.903-6.379-1.637 0-2.057 1.217-5.541 1.258-3.484-0.041-3.904-1.258-5.541-1.258-1.049 0-3.022 1.453-3.904 6.379-0.503 2.812-1.049 7.010 0.252 7.514 1.619 0.627 2.168-0.941 3.946-2.266 1.805-1.343 2.671-1.659 5.247-1.659s3.442 0.316 5.247 1.659c1.778 1.324 2.327 2.893 3.946 2.266 1.301-0.504 0.755-4.701 0.251-7.514zM6 10c-1.105 0-2-0.896-2-2s0.895-2 2-2 2 0.895 2 2c0 1.104-0.896 2-2 2zM13 10c-0.553 0-1-0.447-1-1s0.447-1 1-1c0.553 0 1 0.447 1 1s-0.447 1-1 1zM15 8c-0.553 0-1-0.447-1-1s0.447-1 1-1c0.553 0 1 0.447 1 1s-0.447 1-1 1z"></path>
</symbol>
<symbol id="icon-heart" viewBox="0 0 20 20">
<title>heart</title>
<path d="M17.19 4.155c-1.672-1.534-4.383-1.534-6.055 0l-1.135 1.042-1.136-1.042c-1.672-1.534-4.382-1.534-6.054 0-1.881 1.727-1.881 4.52 0 6.246l7.19 6.599 7.19-6.599c1.88-1.726 1.88-4.52 0-6.246z"></path>
</symbol>
<symbol id="icon-hour-glass" viewBox="0 0 20 20">
<title>hour-glass</title>
<path d="M15.6 4.576c0-2.139 0-2.348 0-2.348 0-0.789-2.508-2.228-5.6-2.228-3.093 0-5.6 1.439-5.6 2.228 0 0 0 0.209 0 2.348 0 2.141 3.877 3.908 3.877 5.424 0 1.514-3.877 3.281-3.877 5.422s0 2.35 0 2.35c0 0.788 2.507 2.228 5.6 2.228 3.092 0 5.6-1.44 5.6-2.229 0 0 0-0.209 0-2.35s-3.877-3.908-3.877-5.422c0-1.515 3.877-3.282 3.877-5.423zM5.941 2.328c0.696-0.439 2-1.082 4.114-1.082s4.006 1.082 4.006 1.082c0.142 0.086 0.698 0.383 0.317 0.609-0.838 0.497-2.478 1.020-4.378 1.020s-3.484-0.576-4.324-1.074c-0.381-0.225 0.265-0.555 0.265-0.555zM10.501 10c0 1.193 0.996 1.961 2.051 2.986 0.771 0.748 1.826 1.773 1.826 2.435v1.328c-0.97-0.483-3.872-0.955-3.872-2.504 0-0.783-1.013-0.783-1.013 0 0 1.549-2.902 2.021-3.872 2.504v-1.328c0-0.662 1.056-1.688 1.826-2.435 1.055-1.025 2.051-1.793 2.051-2.986s-0.996-1.961-2.051-2.986c-0.771-0.75-1.826-1.775-1.826-2.438l-0.046-0.998c1.026 0.553 2.652 1.078 4.425 1.078 1.772 0 3.406-0.525 4.433-1.078l-0.055 0.998c0 0.662-1.056 1.688-1.826 2.438-1.054 1.025-2.051 1.793-2.051 2.986z"></path>
</symbol>
<symbol id="icon-laptop" viewBox="0 0 20 20">
<title>laptop</title>
<path d="M19.754 15.631c-0.247-0.371-1.754-2.631-1.754-2.631v-9c0-1.102-0.9-2-2-2h-12c-1.101 0-2 0.898-2 2v9c0 0-1.507 2.26-1.754 2.631-0.246 0.369-0.246 0.582-0.246 0.869v0.5c0 0.5 0.5 1 0.999 1h18.002c0.499 0 0.999-0.5 0.999-1v-0.5c0-0.287 0-0.5-0.246-0.869zM7 16l0.6-1h4.8l0.6 1h-6zM16 12h-12v-8h12v8z"></path>
</symbol>
<symbol id="icon-shopping-cart" viewBox="0 0 20 20">
<title>shopping-cart</title>
<path d="M13 17c0 1.104 0.894 2 2 2 1.104 0 2-0.896 2-2 0-1.106-0.896-2-2-2-1.106 0-2 0.894-2 2zM3 17c0 1.104 0.895 2 2 2 1.103 0 2-0.896 2-2 0-1.106-0.897-2-2-2-1.105 0-2 0.894-2 2zM6.547 12.172l11.068-3.162c0.211-0.061 0.385-0.289 0.385-0.51v-5.5h-14v-1.6c0-0.22-0.181-0.4-0.399-0.4h-3.202c-0.219 0-0.399 0.18-0.399 0.4v1.6h2l1.91 8.957 0.090 0.943v1.649c0 0.219 0.18 0.4 0.4 0.4h13.2c0.22 0 0.4-0.182 0.4-0.4v-1.549h-11.248c-1.15 0-1.174-0.551-0.205-0.828z"></path>
</symbol>
<symbol id="icon-star" viewBox="0 0 20 20">
<title>star</title>
<path d="M10 1.3l2.388 6.722h6.412l-5.232 3.948 1.871 6.928-5.439-4.154-5.438 4.154 1.87-6.928-5.233-3.948h6.412l2.389-6.722z"></path>
</symbol>
<symbol id="icon-typing" viewBox="0 0 20 20">
<title>typing</title>
<path d="M16 4h-12c-1.101 0-2 0.9-2 2v7c0 1.1 0.899 2 2 2h4l4 3v-3h4c1.1 0 2-0.9 2-2v-7c0-1.1-0.9-2-2-2zM6 10.6c-0.607 0-1.1-0.492-1.1-1.1s0.492-1.1 1.1-1.1 1.1 0.492 1.1 1.1c0 0.607-0.493 1.1-1.1 1.1zM10 10.6c-0.607 0-1.1-0.492-1.1-1.1s0.492-1.1 1.1-1.1 1.1 0.492 1.1 1.1c0 0.607-0.493 1.1-1.1 1.1zM14 10.6c-0.607 0-1.1-0.492-1.1-1.1s0.492-1.1 1.1-1.1 1.1 0.492 1.1 1.1c0 0.607-0.493 1.1-1.1 1.1z"></path>
</symbol>
<symbol id="icon-facebook-with-circle" viewBox="0 0 20 20">
<title>facebook-with-circle</title>
<path d="M10 0.4c-5.302 0-9.6 4.298-9.6 9.6s4.298 9.6 9.6 9.6 9.6-4.298 9.6-9.6-4.298-9.6-9.6-9.6zM12.274 7.034h-1.443c-0.171 0-0.361 0.225-0.361 0.524v1.042h1.805l-0.273 1.486h-1.532v4.461h-1.703v-4.461h-1.545v-1.486h1.545v-0.874c0-1.254 0.87-2.273 2.064-2.273h1.443v1.581z"></path>
</symbol>
<symbol id="icon-instagram-with-circle" viewBox="0 0 20 20">
<title>instagram-with-circle</title>
<path d="M13 10c0 1.657-1.343 3-3 3s-3-1.343-3-3c0-0.171 0.018-0.338 0.049-0.5h-1.049v3.997c0 0.278 0.225 0.503 0.503 0.503h6.995c0.277 0 0.502-0.225 0.502-0.503v-3.997h-1.049c0.031 0.162 0.049 0.329 0.049 0.5zM10 12c1.104 0 2-0.896 2-2s-0.896-2-2-2-2 0.896-2 2 0.896 2 2 2zM12.4 7.9h1.199c0.166 0 0.301-0.135 0.301-0.3v-1.199c0-0.166-0.135-0.301-0.301-0.301h-1.199c-0.166 0-0.301 0.135-0.301 0.301v1.199c0.001 0.165 0.136 0.3 0.301 0.3zM10 0.4c-5.302 0-9.6 4.298-9.6 9.6s4.298 9.6 9.6 9.6c5.302 0 9.6-4.298 9.6-9.6s-4.298-9.6-9.6-9.6zM15 13.889c0 0.611-0.5 1.111-1.111 1.111h-7.778c-0.611 0-1.111-0.5-1.111-1.111v-7.778c0-0.611 0.5-1.111 1.111-1.111h7.778c0.611 0 1.111 0.5 1.111 1.111v7.778z"></path>
</symbol>
<symbol id="icon-pinterest-with-circle" viewBox="0 0 20 20">
<title>pinterest-with-circle</title>
<path d="M10 0.4c-5.302 0-9.6 4.298-9.6 9.6s4.298 9.6 9.6 9.6 9.6-4.298 9.6-9.6-4.298-9.6-9.6-9.6zM10.657 12.275c-0.616-0.047-0.874-0.352-1.356-0.644-0.265 1.391-0.589 2.725-1.549 3.422-0.297-2.104 0.434-3.682 0.774-5.359-0.579-0.975 0.069-2.936 1.291-2.454 1.503 0.596-1.302 3.625 0.581 4.004 1.966 0.394 2.769-3.412 1.55-4.648-1.762-1.787-5.127-0.041-4.713 2.517 0.1 0.625 0.747 0.815 0.258 1.678-1.127-0.25-1.464-1.139-1.42-2.324 0.069-1.94 1.743-3.299 3.421-3.486 2.123-0.236 4.115 0.779 4.391 2.777 0.309 2.254-0.959 4.693-3.228 4.517z"></path>
</symbol>
<symbol id="icon-twitter-with-circle" viewBox="0 0 20 20">
<title>twitter-with-circle</title>
<path d="M10 0.4c-5.302 0-9.6 4.298-9.6 9.6s4.298 9.6 9.6 9.6 9.6-4.298 9.6-9.6-4.298-9.6-9.6-9.6zM13.905 8.264c0.004 0.082 0.005 0.164 0.005 0.244 0 2.5-1.901 5.381-5.379 5.381-1.068 0-2.062-0.312-2.898-0.85 0.147 0.018 0.298 0.025 0.451 0.025 0.886 0 1.701-0.301 2.348-0.809-0.827-0.016-1.525-0.562-1.766-1.312 0.115 0.021 0.233 0.033 0.355 0.033 0.172 0 0.34-0.023 0.498-0.066-0.865-0.174-1.517-0.938-1.517-1.854v-0.023c0.255 0.141 0.547 0.227 0.857 0.237-0.508-0.34-0.841-0.918-0.841-1.575 0-0.346 0.093-0.672 0.256-0.951 0.933 1.144 2.325 1.896 3.897 1.977-0.033-0.139-0.049-0.283-0.049-0.432 0-1.043 0.846-1.891 1.891-1.891 0.543 0 1.035 0.23 1.38 0.598 0.431-0.086 0.835-0.242 1.2-0.459-0.141 0.441-0.44 0.812-0.831 1.047 0.383-0.047 0.747-0.148 1.086-0.299-0.253 0.379-0.574 0.713-0.943 0.979z"></path>
</symbol>
</defs>
</svg>
